<svg width="900" height="300" viewBox="0 0 900 300" xmlns="http://www.w3.org/2000/svg" role="img" aria-label="NEXUS AGENTS">
  <style>@media(prefers-reduced-motion:reduce){*{animation-duration:0.01ms!important;animation-iteration-count:1!important}}</style>
  <defs>
    <linearGradient id="ts" x1="0" y1="0" x2="0" y2="1"><stop offset="0%" stop-color="#080400"/><stop offset="60%" stop-color="#1a0a00"/><stop offset="100%" stop-color="#080400"/></linearGradient>
    <filter id="cg"><feGaussianBlur stdDeviation="4" result="b"/><feComposite in="SourceGraphic" in2="b" operator="over"/></filter>
    <filter id="tg"><feGaussianBlur stdDeviation="2" result="b"/><feComposite in="SourceGraphic" in2="b" operator="over"/></filter>
    <radialGradient id="hg" cx="50%" cy="0%" r="80%"><stop offset="0%" stop-color="#ff6600" stop-opacity="0.08"/><stop offset="100%" stop-color="#ff6600" stop-opacity="0"/></radialGradient>
  </defs>
  <rect width="900" height="300" rx="12" fill="url(#ts)"/>
  <rect x="0" y="95" width="900" height="80" fill="url(#hg)"/>
  <line x1="0" y1="135" x2="900" y2="135" stroke="#ff6600" stroke-width="1" opacity="0.4"/>
  <g><line x1="0" y1="135" x2="900" y2="135" stroke="#331100" stroke-width="0.8" opacity="0.50"/>
    <line x1="0" y1="135" x2="900" y2="135" stroke="#331100" stroke-width="0.8" opacity="0.48"/>
    <line x1="0" y1="137" x2="900" y2="137" stroke="#331100" stroke-width="0.8" opacity="0.45"/>
    <line x1="0" y1="141" x2="900" y2="141" stroke="#331100" stroke-width="0.8" opacity="0.43"/>
    <line x1="0" y1="146" x2="900" y2="146" stroke="#331100" stroke-width="0.8" opacity="0.41"/>
    <line x1="0" y1="153" x2="900" y2="153" stroke="#331100" stroke-width="0.8" opacity="0.38"/>
    <line x1="0" y1="161" x2="900" y2="161" stroke="#331100" stroke-width="0.8" opacity="0.36"/>
    <line x1="0" y1="170" x2="900" y2="170" stroke="#331100" stroke-width="0.8" opacity="0.34"/>
    <line x1="0" y1="181" x2="900" y2="181" stroke="#331100" stroke-width="0.8" opacity="0.31"/>
    <line x1="0" y1="194" x2="900" y2="194" stroke="#331100" stroke-width="0.8" opacity="0.29"/>
    <line x1="0" y1="208" x2="900" y2="208" stroke="#331100" stroke-width="0.8" opacity="0.27"/>
    <line x1="0" y1="223" x2="900" y2="223" stroke="#331100" stroke-width="0.8" opacity="0.24"/>
    <line x1="0" y1="240" x2="900" y2="240" stroke="#331100" stroke-width="0.8" opacity="0.22"/>
    <line x1="0" y1="258" x2="900" y2="258" stroke="#331100" stroke-width="0.8" opacity="0.20"/>
    <line x1="0" y1="278" x2="900" y2="278" stroke="#331100" stroke-width="0.8" opacity="0.17"/>
    <line x1="450" y1="135" x2="-450" y2="300" stroke="#331100" stroke-width="0.8" opacity="0.10"/>
    <line x1="450" y1="135" x2="-360" y2="300" stroke="#331100" stroke-width="0.8" opacity="0.12"/>
    <line x1="450" y1="135" x2="-270" y2="300" stroke="#331100" stroke-width="0.8" opacity="0.15"/>
    <line x1="450" y1="135" x2="-180" y2="300" stroke="#331100" stroke-width="0.8" opacity="0.17"/>
    <line x1="450" y1="135" x2="-90" y2="300" stroke="#331100" stroke-width="0.8" opacity="0.20"/>
    <line x1="450" y1="135" x2="0" y2="300" stroke="#331100" stroke-width="0.8" opacity="0.22"/>
    <line x1="450" y1="135" x2="90" y2="300" stroke="#331100" stroke-width="0.8" opacity="0.25"/>
    <line x1="450" y1="135" x2="180" y2="300" stroke="#331100" stroke-width="0.8" opacity="0.27"/>
    <line x1="450" y1="135" x2="270" y2="300" stroke="#331100" stroke-width="0.8" opacity="0.30"/>
    <line x1="450" y1="135" x2="360" y2="300" stroke="#331100" stroke-width="0.8" opacity="0.32"/>
    <line x1="450" y1="135" x2="450" y2="300" stroke="#331100" stroke-width="0.8" opacity="0.35"/>
    <line x1="450" y1="135" x2="540" y2="300" stroke="#331100" stroke-width="0.8" opacity="0.32"/>
    <line x1="450" y1="135" x2="630" y2="300" stroke="#331100" stroke-width="0.8" opacity="0.30"/>
    <line x1="450" y1="135" x2="720" y2="300" stroke="#331100" stroke-width="0.8" opacity="0.27"/>
    <line x1="450" y1="135" x2="810" y2="300" stroke="#331100" stroke-width="0.8" opacity="0.25"/>
    <line x1="450" y1="135" x2="900" y2="300" stroke="#331100" stroke-width="0.8" opacity="0.22"/>
    <line x1="450" y1="135" x2="990" y2="300" stroke="#331100" stroke-width="0.8" opacity="0.20"/>
    <line x1="450" y1="135" x2="1080" y2="300" stroke="#331100" stroke-width="0.8" opacity="0.17"/>
    <line x1="450" y1="135" x2="1170" y2="300" stroke="#331100" stroke-width="0.8" opacity="0.15"/>
    <line x1="450" y1="135" x2="1260" y2="300" stroke="#331100" stroke-width="0.8" opacity="0.12"/>
    <line x1="450" y1="135" x2="1350" y2="300" stroke="#331100" stroke-width="0.8" opacity="0.10"/></g>
  <g>
    <path d="M 315,175 L 566,175 L 566,248 L 767,248 L 767,285 L 635,285" fill="none" stroke="#ff4400" stroke-width="6" stroke-linecap="round" opacity="0.3" filter="url(#cg)" stroke-dasharray="695" stroke-dashoffset="695">
      <animate attributeName="stroke-dashoffset" from="695" to="0" dur="4.401308430475183s" begin="0.48744656056078384s" fill="freeze" repeatCount="indefinite"/></path>
    <path d="M 315,175 L 566,175 L 566,248 L 767,248 L 767,285 L 635,285" fill="none" stroke="#ff6600" stroke-width="2" stroke-linecap="round" stroke-dasharray="695" stroke-dashoffset="695">
      <animate attributeName="stroke-dashoffset" from="695" to="0" dur="4.401308430475183s" begin="0.48744656056078384s" fill="freeze" repeatCount="indefinite"/></path>
    <circle r="3" fill="#ff6600" filter="url(#cg)"><animateMotion dur="4.401308430475183s" begin="0.48744656056078384s" repeatCount="indefinite" fill="freeze"><mpath href="#cp0"/></animateMotion></circle>
    <path id="cp0" d="M 315,175 L 566,175 L 566,248 L 767,248 L 767,285 L 635,285" fill="none" stroke="none"/>
    <path d="M 222,219 L 93,219 L 93,167 L 20,167 L 20,140 L 20,140 L 20,140" fill="none" stroke="#cc0033" stroke-width="6" stroke-linecap="round" opacity="0.3" filter="url(#cg)" stroke-dasharray="283" stroke-dashoffset="283">
      <animate attributeName="stroke-dashoffset" from="283" to="0" dur="3.990187339411932s" begin="1.5528375973162838s" fill="freeze" repeatCount="indefinite"/></path>
    <path d="M 222,219 L 93,219 L 93,167 L 20,167 L 20,140 L 20,140 L 20,140" fill="none" stroke="#ff0044" stroke-width="2" stroke-linecap="round" stroke-dasharray="283" stroke-dashoffset="283">
      <animate attributeName="stroke-dashoffset" from="283" to="0" dur="3.990187339411932s" begin="1.5528375973162838s" fill="freeze" repeatCount="indefinite"/></path>
    <circle r="3" fill="#ff0044" filter="url(#cg)"><animateMotion dur="3.990187339411932s" begin="1.5528375973162838s" repeatCount="indefinite" fill="freeze"><mpath href="#cp1"/></animateMotion></circle>
    <path id="cp1" d="M 222,219 L 93,219 L 93,167 L 20,167 L 20,140 L 20,140 L 20,140" fill="none" stroke="none"/>
    <path d="M 477,211 L 666,211 L 666,285 L 861,285" fill="none" stroke="#cc9900" stroke-width="6" stroke-linecap="round" opacity="0.3" filter="url(#cg)" stroke-dasharray="458" stroke-dashoffset="458">
      <animate attributeName="stroke-dashoffset" from="458" to="0" dur="5.122195775795262s" begin="1.366043640548014s" fill="freeze" repeatCount="indefinite"/></path>
    <path d="M 477,211 L 666,211 L 666,285 L 861,285" fill="none" stroke="#ffcc00" stroke-width="2" stroke-linecap="round" stroke-dasharray="458" stroke-dashoffset="458">
      <animate attributeName="stroke-dashoffset" from="458" to="0" dur="5.122195775795262s" begin="1.366043640548014s" fill="freeze" repeatCount="indefinite"/></path>
    <circle r="3" fill="#ffcc00" filter="url(#cg)"><animateMotion dur="5.122195775795262s" begin="1.366043640548014s" repeatCount="indefinite" fill="freeze"><mpath href="#cp2"/></animateMotion></circle>
    <path id="cp2" d="M 477,211 L 666,211 L 666,285 L 861,285" fill="none" stroke="none"/>
    <path d="M 414,211 L 268,211 L 268,143 L 120,143" fill="none" stroke="#00cc66" stroke-width="6" stroke-linecap="round" opacity="0.3" filter="url(#cg)" stroke-dasharray="362" stroke-dashoffset="362">
      <animate attributeName="stroke-dashoffset" from="362" to="0" dur="4.842854618647834s" begin="1.3454368256516318s" fill="freeze" repeatCount="indefinite"/></path>
    <path d="M 414,211 L 268,211 L 268,143 L 120,143" fill="none" stroke="#00ff88" stroke-width="2" stroke-linecap="round" stroke-dasharray="362" stroke-dashoffset="362">
      <animate attributeName="stroke-dashoffset" from="362" to="0" dur="4.842854618647834s" begin="1.3454368256516318s" fill="freeze" repeatCount="indefinite"/></path>
    <circle r="3" fill="#00ff88" filter="url(#cg)"><animateMotion dur="4.842854618647834s" begin="1.3454368256516318s" repeatCount="indefinite" fill="freeze"><mpath href="#cp3"/></animateMotion></circle>
    <path id="cp3" d="M 414,211 L 268,211 L 268,143 L 120,143" fill="none" stroke="none"/>
    <path d="M 883,169 L 763,169 L 763,140 L 649,140 L 649,140" fill="none" stroke="#cc00cc" stroke-width="6" stroke-linecap="round" opacity="0.3" filter="url(#cg)" stroke-dasharray="263" stroke-dashoffset="263">
      <animate attributeName="stroke-dashoffset" from="263" to="0" dur="6.925280980503885s" begin="0.3408590150938835s" fill="freeze" repeatCount="indefinite"/></path>
    <path d="M 883,169 L 763,169 L 763,140 L 649,140 L 649,140" fill="none" stroke="#ff00ff" stroke-width="2" stroke-linecap="round" stroke-dasharray="263" stroke-dashoffset="263">
      <animate attributeName="stroke-dashoffset" from="263" to="0" dur="6.925280980503885s" begin="0.3408590150938835s" fill="freeze" repeatCount="indefinite"/></path>
    <circle r="3" fill="#ff00ff" filter="url(#cg)"><animateMotion dur="6.925280980503885s" begin="0.3408590150938835s" repeatCount="indefinite" fill="freeze"><mpath href="#cp4"/></animateMotion></circle>
    <path id="cp4" d="M 883,169 L 763,169 L 763,140 L 649,140 L 649,140" fill="none" stroke="none"/></g>
  <text x="450" y="85" text-anchor="middle" font-family="'JetBrains Mono',monospace" font-size="44" font-weight="700" fill="#ffffff" filter="url(#tg)" letter-spacing="8">NEXUS AGENTS</text>
  <text x="450" y="117" text-anchor="middle" font-family="'JetBrains Mono',monospace" font-size="14" fill="#cc5500" letter-spacing="4">End Of Line</text>
  <rect width="900" height="300" rx="12" fill="none" stroke="#ff6600" stroke-width="1" opacity="0.15"/>
</svg>