<svg width="900" height="320" viewBox="0 0 900 320" xmlns="http://www.w3.org/2000/svg" role="img" aria-label="N E X U S">
  <style>@media(prefers-reduced-motion:reduce){*{animation-duration:0.01ms!important;animation-iteration-count:1!important}}</style>
  <defs>
    <linearGradient id="vs" x1="0" y1="0" x2="0" y2="1"><stop offset="0%" stop-color="#ff0066"/><stop offset="50%" stop-color="#ff6600"/><stop offset="100%" stop-color="#ffcc00"/></linearGradient>
    <filter id="cg"><feGaussianBlur stdDeviation="5" result="b"/><feComposite in="SourceGraphic" in2="b" operator="over"/></filter>
    <filter id="sg"><feGaussianBlur stdDeviation="8" result="b"/><feComposite in="SourceGraphic" in2="b" operator="over"/></filter>
    <filter id="tg"><feGaussianBlur stdDeviation="2" result="b"/><feComposite in="SourceGraphic" in2="b" operator="over"/></filter>
    <clipPath id="bh"><rect x="0" y="154" width="900" height="166"/></clipPath>
  </defs>
  <rect width="900" height="320" rx="14" fill="url(#vs)"/>
  <g filter="url(#sg)"><circle cx="450" cy="144" r="55" fill="#ffff00"/><clipPath id="sc"><circle cx="450" cy="144" r="55"/></clipPath><g clip-path="url(#sc)"><rect x="395" y="101" width="110" height="2.0" fill="#ff0066"/><rect x="395" y="113" width="110" height="2.8" fill="#ff0066"/><rect x="395" y="125" width="110" height="3.6" fill="#ff0066"/><rect x="395" y="137" width="110" height="4.4" fill="#ff0066"/><rect x="395" y="150" width="110" height="5.2" fill="#ff0066"/><rect x="395" y="162" width="110" height="6.0" fill="#ff0066"/><rect x="395" y="174" width="110" height="6.8" fill="#ff0066"/><rect x="395" y="186" width="110" height="7.6" fill="#ff0066"/></g></g>
  <polygon points="0,154 0,96 45,92 90,90 135,103 180,105 225,105 270,101 315,110 360,108 405,84 450,95 495,132 540,103 585,124 630,90 675,133 720,85 765,96 810,107 855,100 900,118 900,154" fill="#cc0044"/>
  <g><line x1="60" y1="154" x2="63" y2="74" stroke="#880033" stroke-width="4"/><path d="M 63,74 Q 71,59 80,51" fill="none" stroke="#880033" stroke-width="3"/><path d="M 63,74 Q 78,59 93,59" fill="none" stroke="#880033" stroke-width="3"/><path d="M 63,74 Q 80,59 98,69" fill="none" stroke="#880033" stroke-width="3"/><path d="M 63,74 Q 78,59 93,79" fill="none" stroke="#880033" stroke-width="3"/><path d="M 63,74 Q 71,59 80,86" fill="none" stroke="#880033" stroke-width="3"/><line x1="120" y1="154" x2="123" y2="89" stroke="#880033" stroke-width="4"/><path d="M 123,89 Q 131,74 140,66" fill="none" stroke="#880033" stroke-width="3"/><path d="M 123,89 Q 138,74 153,74" fill="none" stroke="#880033" stroke-width="3"/><path d="M 123,89 Q 140,74 158,84" fill="none" stroke="#880033" stroke-width="3"/><path d="M 123,89 Q 138,74 153,94" fill="none" stroke="#880033" stroke-width="3"/><path d="M 123,89 Q 131,74 140,101" fill="none" stroke="#880033" stroke-width="3"/><line x1="820" y1="154" x2="823" y2="79" stroke="#880033" stroke-width="4"/><path d="M 823,79 Q 831,64 840,56" fill="none" stroke="#880033" stroke-width="3"/><path d="M 823,79 Q 838,64 853,64" fill="none" stroke="#880033" stroke-width="3"/><path d="M 823,79 Q 840,64 858,74" fill="none" stroke="#880033" stroke-width="3"/><path d="M 823,79 Q 838,64 853,84" fill="none" stroke="#880033" stroke-width="3"/><path d="M 823,79 Q 831,64 840,91" fill="none" stroke="#880033" stroke-width="3"/><line x1="760" y1="154" x2="763" y2="99" stroke="#880033" stroke-width="4"/><path d="M 763,99 Q 771,84 780,76" fill="none" stroke="#880033" stroke-width="3"/><path d="M 763,99 Q 778,84 793,84" fill="none" stroke="#880033" stroke-width="3"/><path d="M 763,99 Q 780,84 798,94" fill="none" stroke="#880033" stroke-width="3"/><path d="M 763,99 Q 778,84 793,104" fill="none" stroke="#880033" stroke-width="3"/><path d="M 763,99 Q 771,84 780,111" fill="none" stroke="#880033" stroke-width="3"/></g>
  <g clip-path="url(#bh)"><rect x="0" y="154" width="900" height="166" fill="#aa0044"/><line x1="0" y1="154" x2="900" y2="154" stroke="#ff0088" stroke-width="0.5" opacity="0.60"/>
    <line x1="0" y1="154" x2="900" y2="154" stroke="#ff0088" stroke-width="0.6" opacity="0.58"/>
    <line x1="0" y1="156" x2="900" y2="156" stroke="#ff0088" stroke-width="0.7" opacity="0.56"/>
    <line x1="0" y1="158" x2="900" y2="158" stroke="#ff0088" stroke-width="0.8" opacity="0.53"/>
    <line x1="0" y1="162" x2="900" y2="162" stroke="#ff0088" stroke-width="0.8" opacity="0.51"/>
    <line x1="0" y1="166" x2="900" y2="166" stroke="#ff0088" stroke-width="0.9" opacity="0.49"/>
    <line x1="0" y1="172" x2="900" y2="172" stroke="#ff0088" stroke-width="1.0" opacity="0.47"/>
    <line x1="0" y1="179" x2="900" y2="179" stroke="#ff0088" stroke-width="1.1" opacity="0.44"/>
    <line x1="0" y1="186" x2="900" y2="186" stroke="#ff0088" stroke-width="1.2" opacity="0.42"/>
    <line x1="0" y1="195" x2="900" y2="195" stroke="#ff0088" stroke-width="1.3" opacity="0.40"/>
    <line x1="0" y1="205" x2="900" y2="205" stroke="#ff0088" stroke-width="1.3" opacity="0.38"/>
    <line x1="0" y1="215" x2="900" y2="215" stroke="#ff0088" stroke-width="1.4" opacity="0.36"/>
    <line x1="0" y1="227" x2="900" y2="227" stroke="#ff0088" stroke-width="1.5" opacity="0.33"/>
    <line x1="0" y1="240" x2="900" y2="240" stroke="#ff0088" stroke-width="1.6" opacity="0.31"/>
    <line x1="0" y1="254" x2="900" y2="254" stroke="#ff0088" stroke-width="1.7" opacity="0.29"/>
    <line x1="0" y1="269" x2="900" y2="269" stroke="#ff0088" stroke-width="1.8" opacity="0.27"/>
    <line x1="0" y1="285" x2="900" y2="285" stroke="#ff0088" stroke-width="1.8" opacity="0.24"/>
    <line x1="0" y1="302" x2="900" y2="302" stroke="#ff0088" stroke-width="1.9" opacity="0.22"/>
    <line x1="450" y1="154" x2="-450" y2="320" stroke="#ff0088" stroke-width="0.8" opacity="0.10"/>
    <line x1="450" y1="154" x2="-375" y2="320" stroke="#ff0088" stroke-width="0.8" opacity="0.13"/>
    <line x1="450" y1="154" x2="-300" y2="320" stroke="#ff0088" stroke-width="0.8" opacity="0.15"/>
    <line x1="450" y1="154" x2="-225" y2="320" stroke="#ff0088" stroke-width="0.8" opacity="0.18"/>
    <line x1="450" y1="154" x2="-150" y2="320" stroke="#ff0088" stroke-width="0.8" opacity="0.20"/>
    <line x1="450" y1="154" x2="-75" y2="320" stroke="#ff0088" stroke-width="0.8" opacity="0.23"/>
    <line x1="450" y1="154" x2="0" y2="320" stroke="#ff0088" stroke-width="0.8" opacity="0.25"/>
    <line x1="450" y1="154" x2="75" y2="320" stroke="#ff0088" stroke-width="0.8" opacity="0.28"/>
    <line x1="450" y1="154" x2="150" y2="320" stroke="#ff0088" stroke-width="0.8" opacity="0.30"/>
    <line x1="450" y1="154" x2="225" y2="320" stroke="#ff0088" stroke-width="0.8" opacity="0.33"/>
    <line x1="450" y1="154" x2="300" y2="320" stroke="#ff0088" stroke-width="0.8" opacity="0.35"/>
    <line x1="450" y1="154" x2="375" y2="320" stroke="#ff0088" stroke-width="0.8" opacity="0.38"/>
    <line x1="450" y1="154" x2="450" y2="320" stroke="#ff0088" stroke-width="0.8" opacity="0.40"/>
    <line x1="450" y1="154" x2="525" y2="320" stroke="#ff0088" stroke-width="0.8" opacity="0.38"/>
    <line x1="450" y1="154" x2="600" y2="320" stroke="#ff0088" stroke-width="0.8" opacity="0.35"/>
    <line x1="450" y1="154" x2="675" y2="320" stroke="#ff0088" stroke-width="0.8" opacity="0.33"/>
    <line x1="450" y1="154" x2="750" y2="320" stroke="#ff0088" stroke-width="0.8" opacity="0.30"/>
    <line x1="450" y1="154" x2="825" y2="320" stroke="#ff0088" stroke-width="0.8" opacity="0.28"/>
    <line x1="450" y1="154" x2="900" y2="320" stroke="#ff0088" stroke-width="0.8" opacity="0.25"/>
    <line x1="450" y1="154" x2="975" y2="320" stroke="#ff0088" stroke-width="0.8" opacity="0.23"/>
    <line x1="450" y1="154" x2="1050" y2="320" stroke="#ff0088" stroke-width="0.8" opacity="0.20"/>
    <line x1="450" y1="154" x2="1125" y2="320" stroke="#ff0088" stroke-width="0.8" opacity="0.18"/>
    <line x1="450" y1="154" x2="1200" y2="320" stroke="#ff0088" stroke-width="0.8" opacity="0.15"/>
    <line x1="450" y1="154" x2="1275" y2="320" stroke="#ff0088" stroke-width="0.8" opacity="0.13"/>
    <line x1="450" y1="154" x2="1350" y2="320" stroke="#ff0088" stroke-width="0.8" opacity="0.10"/>
    <line x1="0" x2="900" stroke="#ff0088" stroke-width="1.5" opacity="0"><animate attributeName="y1" from="159" to="320" dur="2.0s" begin="0.0s" repeatCount="indefinite"/><animate attributeName="y2" from="159" to="320" dur="2.0s" begin="0.0s" repeatCount="indefinite"/><animate attributeName="opacity" values="0;0.6;0" dur="2.0s" begin="0.0s" repeatCount="indefinite"/><animate attributeName="stroke-width" from="0.5" to="3" dur="2.0s" begin="0.0s" repeatCount="indefinite"/></line>
    <line x1="0" x2="900" stroke="#ff0088" stroke-width="1.5" opacity="0"><animate attributeName="y1" from="159" to="320" dur="2.5s" begin="0.7s" repeatCount="indefinite"/><animate attributeName="y2" from="159" to="320" dur="2.5s" begin="0.7s" repeatCount="indefinite"/><animate attributeName="opacity" values="0;0.6;0" dur="2.5s" begin="0.7s" repeatCount="indefinite"/><animate attributeName="stroke-width" from="0.5" to="3" dur="2.5s" begin="0.7s" repeatCount="indefinite"/></line>
    <line x1="0" x2="900" stroke="#ff0088" stroke-width="1.5" opacity="0"><animate attributeName="y1" from="159" to="320" dur="3.0s" begin="1.4s" repeatCount="indefinite"/><animate attributeName="y2" from="159" to="320" dur="3.0s" begin="1.4s" repeatCount="indefinite"/><animate attributeName="opacity" values="0;0.6;0" dur="3.0s" begin="1.4s" repeatCount="indefinite"/><animate attributeName="stroke-width" from="0.5" to="3" dur="3.0s" begin="1.4s" repeatCount="indefinite"/></line></g>
  <g clip-path="url(#bh)"><g opacity="0"><animate attributeName="opacity" values="0;1;1;0" keyTimes="0;0.03;0.97;1" dur="7.9s" begin="0.1s" repeatCount="indefinite"/>
      <rect rx="2" width="40" height="10" fill="#00ffcc"><animate attributeName="x" from="-60" to="960" dur="7.9s" begin="0.1s" repeatCount="indefinite"/><animate attributeName="y" from="162" to="162" dur="0.1s" fill="freeze"/></rect>
      <rect rx="2" width="18" height="7" fill="#00ffcc" opacity="0.8"><animate attributeName="x" from="-52" to="968" dur="7.9s" begin="0.1s" repeatCount="indefinite"/><animate attributeName="y" from="155" to="155" dur="0.1s" fill="freeze"/></rect>
      <circle r="3" fill="#ffffff" opacity="0.7" filter="url(#cg)"><animate attributeName="cx" from="-20" to="1000" dur="7.9s" begin="0.1s" repeatCount="indefinite"/><animate attributeName="cy" from="167" to="167" dur="0.1s" fill="freeze"/></circle>
      <circle r="2" fill="#ff0033" opacity="0.9"><animate attributeName="cx" from="-60" to="960" dur="7.9s" begin="0.1s" repeatCount="indefinite"/><animate attributeName="cy" from="167" to="167" dur="0.1s" fill="freeze"/></circle></g><g opacity="0"><animate attributeName="opacity" values="0;1;1;0" keyTimes="0;0.03;0.97;1" dur="10.4s" begin="2.4s" repeatCount="indefinite"/>
      <rect rx="2" width="40" height="10" fill="#ff4444"><animate attributeName="x" from="960" to="-60" dur="10.4s" begin="2.4s" repeatCount="indefinite"/><animate attributeName="y" from="178" to="178" dur="0.1s" fill="freeze"/></rect>
      <rect rx="2" width="18" height="7" fill="#ff4444" opacity="0.8"><animate attributeName="x" from="974" to="-46" dur="10.4s" begin="2.4s" repeatCount="indefinite"/><animate attributeName="y" from="171" to="171" dur="0.1s" fill="freeze"/></rect>
      <circle r="3" fill="#ffffff" opacity="0.7" filter="url(#cg)"><animate attributeName="cx" from="960" to="-60" dur="10.4s" begin="2.4s" repeatCount="indefinite"/><animate attributeName="cy" from="183" to="183" dur="0.1s" fill="freeze"/></circle>
      <circle r="2" fill="#ff0033" opacity="0.9"><animate attributeName="cx" from="1000" to="-20" dur="10.4s" begin="2.4s" repeatCount="indefinite"/><animate attributeName="cy" from="183" to="183" dur="0.1s" fill="freeze"/></circle></g><g opacity="0"><animate attributeName="opacity" values="0;1;1;0" keyTimes="0;0.03;0.97;1" dur="7.6s" begin="4.5s" repeatCount="indefinite"/>
      <rect rx="2" width="40" height="10" fill="#ff4444"><animate attributeName="x" from="-60" to="960" dur="7.6s" begin="4.5s" repeatCount="indefinite"/><animate attributeName="y" from="162" to="162" dur="0.1s" fill="freeze"/></rect>
      <rect rx="2" width="18" height="7" fill="#ff4444" opacity="0.8"><animate attributeName="x" from="-52" to="968" dur="7.6s" begin="4.5s" repeatCount="indefinite"/><animate attributeName="y" from="155" to="155" dur="0.1s" fill="freeze"/></rect>
      <circle r="3" fill="#ffffff" opacity="0.7" filter="url(#cg)"><animate attributeName="cx" from="-20" to="1000" dur="7.6s" begin="4.5s" repeatCount="indefinite"/><animate attributeName="cy" from="167" to="167" dur="0.1s" fill="freeze"/></circle>
      <circle r="2" fill="#ff0033" opacity="0.9"><animate attributeName="cx" from="-60" to="960" dur="7.6s" begin="4.5s" repeatCount="indefinite"/><animate attributeName="cy" from="167" to="167" dur="0.1s" fill="freeze"/></circle></g><g opacity="0"><animate attributeName="opacity" values="0;1;1;0" keyTimes="0;0.03;0.97;1" dur="10.7s" begin="4.1s" repeatCount="indefinite"/>
      <rect rx="2" width="40" height="10" fill="#00ffcc"><animate attributeName="x" from="960" to="-60" dur="10.7s" begin="4.1s" repeatCount="indefinite"/><animate attributeName="y" from="178" to="178" dur="0.1s" fill="freeze"/></rect>
      <rect rx="2" width="18" height="7" fill="#00ffcc" opacity="0.8"><animate attributeName="x" from="974" to="-46" dur="10.7s" begin="4.1s" repeatCount="indefinite"/><animate attributeName="y" from="171" to="171" dur="0.1s" fill="freeze"/></rect>
      <circle r="3" fill="#ffffff" opacity="0.7" filter="url(#cg)"><animate attributeName="cx" from="960" to="-60" dur="10.7s" begin="4.1s" repeatCount="indefinite"/><animate attributeName="cy" from="183" to="183" dur="0.1s" fill="freeze"/></circle>
      <circle r="2" fill="#ff0033" opacity="0.9"><animate attributeName="cx" from="1000" to="-20" dur="10.7s" begin="4.1s" repeatCount="indefinite"/><animate attributeName="cy" from="183" to="183" dur="0.1s" fill="freeze"/></circle></g></g>
  <text x="450" y="69" text-anchor="middle" font-family="'Segoe UI',system-ui,sans-serif" font-size="42" font-weight="300" fill="#ffffff" filter="url(#tg)" letter-spacing="12">N E X U S</text>
  <text x="450" y="99" text-anchor="middle" font-family="'Segoe UI',sans-serif" font-size="16" fill="#ffaacc" letter-spacing="6">O R C H E S T R A T E</text>
  <rect width="900" height="320" rx="14" fill="none" stroke="#ff4488" stroke-width="1" opacity="0.1"/>
</svg>